<?xml version="1.0" encoding="utf-8"?>
<svg id="master-artboard" viewBox="0 0 260 260" version="1.1" xmlns="http://www.w3.org/2000/svg" x="0px" y="0px" style="enable-background:new 0 0 1400 980;" width="70px" height="70px">
    <defs>
        <style id="ee-google-fonts">
            @import url(https://fonts.googleapis.com/css?family=Berkshire+Swash:400|Chango:400);

        </style>
    </defs>
    <rect id="ee-background" x="0" y="0" width="260" height="260" style="fill: white; fill-opacity: 0; pointer-events: none;" />






    <path d="M 17.270000457763672 23.350000381469727 C 17.270000457763672 23.663333892822266 17.299999237060547 23.959999084472656 17.360000610351562 24.239999771118164 C 17.420000076293945 24.520000457763672 17.543333053588867 24.76333236694336 17.729999542236328 24.969999313354492 C 17.91666603088379 25.176666259765625 18.170000076293945 25.34000015258789 18.489999771118164 25.459999084472656 C 18.809999465942383 25.586666107177734 19.229999542236328 25.649999618530273 19.75 25.649999618530273 C 20.503334045410156 25.649999618530273 21.19333267211914 25.433332443237305 21.81999969482422 25 C 22.446666717529297 24.566665649414062 22.986665725708008 24.01333236694336 23.440000534057617 23.34000015258789 C 23.893333435058594 22.65999984741211 24.24333381652832 21.899999618530273 24.489999771118164 21.059999465942383 C 24.736665725708008 20.219999313354492 24.860000610351562 19.383333206176758 24.860000610351562 18.549999237060547 C 24.860000610351562 17.303333282470703 24.690000534057617 16.206666946411133 24.350000381469727 15.260000228881836 C 24.016666412353516 14.306666374206543 23.549999237060547 13.50333309173584 22.950000762939453 12.850000381469727 C 22.350000381469727 12.196666717529297 21.639999389648438 11.686666488647461 20.81999969482422 11.319999694824219 C 19.99333381652832 10.959999084472656 19.10333251953125 10.753334045410156 18.149999618530273 10.700000762939453 L 18.559999465942383 9.649999618530273 C 19.15999984741211 9.676666259765625 19.733333587646484 9.593334197998047 20.280000686645508 9.399999618530273 C 20.8266658782959 9.213333129882812 21.309999465942383 8.879999160766602 21.729999542236328 8.399999618530273 C 22.143333435058594 7.920000076293945 22.47333335876465 7.273332595825195 22.719999313354492 6.459999084472656 C 22.96666717529297 5.64666748046875 23.09000015258789 4.626667022705078 23.09000015258789 3.3999996185302734 C 23.09000015258789 2.559999465942383 22.986665725708008 1.8066673278808594 22.780000686645508 1.1399993896484375 C 22.579999923706055 0.46666717529296875 22.309999465942383 -0.09666633605957031 21.969999313354492 -0.5499992370605469 C 21.636667251586914 -1.010000228881836 21.25 -1.363332748413086 20.809999465942383 -1.6100006103515625 C 20.363332748413086 -1.8566665649414062 19.906665802001953 -1.9799995422363281 19.440000534057617 -1.9799995422363281 C 19.15333366394043 -1.9799995422363281 18.876667022705078 -1.9466667175292969 18.610000610351562 -1.8799991607666016 C 18.343334197998047 -1.8066673278808594 18.110000610351562 -1.6900005340576172 17.90999984741211 -1.5300006866455078 C 17.71666717529297 -1.363332748413086 17.559999465942383 -1.14666748046875 17.440000534057617 -0.8799991607666016 C 17.3266658782959 -0.6133327484130859 17.270000457763672 -0.28333282470703125 17.270000457763672 0.1100006103515625 L 17.270000457763672 23.350000381469727 M 17.68000030517578 -3.6599998474121094 C 21.64666748046875 -3.6599998474121094 24.559999465942383 -3.0400009155273438 26.420000076293945 -1.7999992370605469 C 28.286666870117188 -0.5666675567626953 29.219999313354492 1.2333335876464844 29.219999313354492 3.6000003814697266 C 29.219999313354492 4.186666488647461 29.156665802001953 4.726667404174805 29.030000686645508 5.219999313354492 C 28.89666748046875 5.7133331298828125 28.729999542236328 6.159999847412109 28.530000686645508 6.559999465942383 C 28.323333740234375 6.966667175292969 28.09000015258789 7.326665878295898 27.829999923706055 7.6399993896484375 C 27.56999969482422 7.953332901000977 27.303333282470703 8.226667404174805 27.030000686645508 8.459999084472656 C 26.389999389648438 9.020000457763672 25.66666603088379 9.456666946411133 24.860000610351562 9.770000457763672 L 24.860000610351562 10.079999923706055 C 26.126667022705078 10.233333587646484 27.266666412353516 10.616666793823242 28.280000686645508 11.229999542236328 C 28.706666946411133 11.489999771118164 29.123332977294922 11.813333511352539 29.530000686645508 12.199999809265137 C 29.94333267211914 12.59333324432373 30.309999465942383 13.066666603088379 30.6299991607666 13.619999885559082 C 30.950000762939453 14.173333168029785 31.209999084472656 14.816666603088379 31.40999984741211 15.550000190734863 C 31.610000610351562 16.27666664123535 31.709999084472656 17.11333465576172 31.709999084472656 18.060001373291016 C 31.709999084472656 19.49333381652832 31.450000762939453 20.78333282470703 30.93000030517578 21.93000030517578 C 30.40999984741211 23.08333396911621 29.636667251586914 24.059999465942383 28.610000610351562 24.860000610351562 C 27.58333396911621 25.65999984741211 26.303333282470703 26.270000457763672 24.770000457763672 26.690000534057617 C 23.24333381652832 27.116666793823242 21.46666717529297 27.329999923706055 19.440000534057617 27.329999923706055 C 17.566667556762695 27.329999923706055 16.043333053588867 27.213333129882812 14.869999885559082 26.979999542236328 C 13.6899995803833 26.746665954589844 12.773333549499512 26.406665802001953 12.119999885559082 25.959999084472656 C 11.466666221618652 25.520000457763672 11.020000457763672 24.983333587646484 10.779999732971191 24.350000381469727 C 10.539999961853027 23.72333335876465 10.420000076293945 23.01333236694336 10.420000076293945 22.219999313354492 L 10.420000076293945 -0.20999908447265625 C 10.420000076293945 -0.9633331298828125 9.899999618530273 -1.3400001525878906 8.859999656677246 -1.3400001525878906 C 8.106666564941406 -1.3400001525878906 7.3433332443237305 -1.2266674041748047 6.570000171661377 -1 C 5.796666622161865 -0.7800006866455078 5.099999904632568 -0.47333335876464844 4.480000019073486 -0.07999992370605469 C 3.859999895095825 0.3066673278808594 3.3499999046325684 0.7700004577636719 2.950000047683716 1.3099994659423828 C 2.556666612625122 1.8500003814697266 2.359999895095825 2.436666488647461 2.359999895095825 3.0699996948242188 C 2.359999895095825 3.5033340454101562 2.4166667461395264 3.8500003814697266 2.5299999713897705 4.1100006103515625 C 2.6500000953674316 4.370000839233398 2.7833333015441895 4.566667556762695 2.930000066757202 4.700000762939453 C 3.0833332538604736 4.826665878295898 3.236666679382324 4.906665802001953 3.390000104904175 4.940000534057617 C 3.549999952316284 4.979999542236328 3.6633334159851074 5 3.7300000190734863 5 C 4.076666831970215 5 4.356666564941406 4.940000534057617 4.570000171661377 4.819999694824219 C 4.789999961853027 4.706666946411133 4.989999771118164 4.583333969116211 5.170000076293945 4.450000762939453 C 5.3433332443237305 4.323333740234375 5.510000228881836 4.200000762939453 5.670000076293945 4.079999923706055 C 5.829999923706055 3.9666671752929688 6.010000228881836 3.9099998474121094 6.210000038146973 3.9099998474121094 C 6.37666654586792 3.9099998474121094 6.553333282470703 3.946666717529297 6.739999771118164 4.020000457763672 C 6.920000076293945 4.093334197998047 7.090000152587891 4.2133331298828125 7.25 4.379999160766602 C 7.409999847412109 4.546667098999023 7.543333530426025 4.763334274291992 7.650000095367432 5.030000686645508 C 7.756666660308838 5.296667098999023 7.809999942779541 5.620000839233398 7.809999942779541 6 C 7.809999942779541 6.546667098999023 7.706666469573975 7.020000457763672 7.5 7.420000076293945 C 7.2866668701171875 7.813333511352539 7.013333320617676 8.143333435058594 6.679999828338623 8.40999984741211 C 6.340000152587891 8.676666259765625 5.956666469573975 8.873332977294922 5.53000020980835 9 C 5.0966668128967285 9.133333206176758 4.670000076293945 9.200000762939453 4.25 9.200000762939453 C 3.5899999141693115 9.200000762939453 2.996666669845581 9.086666107177734 2.4700000286102295 8.860000610351562 C 1.943333387374878 8.633333206176758 1.496666669845581 8.323333740234375 1.1299999952316284 7.930000305175781 C 0.7566666603088379 7.530000686645508 0.476666659116745 7.063333511352539 0.28999999165534973 6.530000686645508 C 0.09666666388511658 5.996665954589844 0 5.430000305175781 0 4.829999923706055 C 0 3.696666717529297 0.2133333384990692 2.696666717529297 0.6399999856948853 1.8299999237060547 C 1.059999942779541 0.9566669464111328 1.65666663646698 0.2066669464111328 2.430000066757202 -0.4200000762939453 C 3.2033333778381348 -1.0466670989990234 4.130000114440918 -1.5699996948242188 5.210000038146973 -1.989999771118164 C 6.289999961853027 -2.4033336639404297 7.486666679382324 -2.7333335876464844 8.800000190734863 -2.979999542236328 C 10.113333702087402 -3.2266674041748047 11.516666412353516 -3.4033336639404297 13.010000228881836 -3.510000228881836 C 14.510000228881836 -3.6100006103515625 16.066667556762695 -3.6599998474121094 17.68000030517578 -3.6599998474121094 Z" transform="matrix(4.034275054931641, 0, 0, 4.034275054931641, 15.505244255065918, 56.05400848388672)" style="fill: rgb(217, 199, 113); white-space: pre; color: rgb(217, 199, 113);" />
    <path d="M 27.600000381469727 14.369999885559082 L 24.649999618530273 14.369999885559082 L 24.649999618530273 26.40999984741211 C 24.649999618530273 28.26333236694336 24.336666107177734 29.886667251586914 23.709999084472656 31.280000686645508 C 23.0766658782959 32.66666793823242 22.196666717529297 33.81999969482422 21.06999969482422 34.73999786376953 C 19.94333267211914 35.66666793823242 18.606666564941406 36.356666564941406 17.059999465942383 36.810001373291016 C 15.520000457763672 37.27000045776367 13.84000015258789 37.5 12.020000457763672 37.5 C 11.319999694824219 37.5 10.649999618530273 37.44333267211914 10.010000228881836 37.33000183105469 C 9.363333702087402 37.209999084472656 8.796667098999023 37.046669006347656 8.3100004196167 36.84000015258789 C 7.816666603088379 36.63999938964844 7.423333168029785 36.400001525878906 7.130000114440918 36.119998931884766 C 6.836666584014893 35.84000015258789 6.690000057220459 35.52666473388672 6.690000057220459 35.18000030517578 C 6.690000057220459 34.93333435058594 6.723333358764648 34.68333435058594 6.789999961853027 34.43000030517578 C 6.856666564941406 34.176666259765625 6.960000038146973 33.95000076293945 7.099999904632568 33.75 C 7.233333110809326 33.5433349609375 7.400000095367432 33.37333297729492 7.599999904632568 33.23999786376953 C 7.800000190734863 33.11333465576172 8.020000457763672 33.04999923706055 8.260000228881836 33.04999923706055 C 8.426666259765625 33.04999923706055 8.563333511352539 33.12666702270508 8.670000076293945 33.279998779296875 C 8.783333778381348 33.426666259765625 8.899999618530273 33.61000061035156 9.020000457763672 33.83000183105469 C 9.146666526794434 34.04999923706055 9.289999961853027 34.2933349609375 9.449999809265137 34.560001373291016 C 9.616666793823242 34.82666778564453 9.823333740234375 35.06999969482422 10.069999694824219 35.290000915527344 C 10.316666603088379 35.503334045410156 10.616666793823242 35.686668395996094 10.970000267028809 35.84000015258789 C 11.323333740234375 35.98666763305664 11.766666412353516 36.060001373291016 12.300000190734863 36.060001373291016 C 13.353333473205566 36.060001373291016 14.283333778381348 35.869998931884766 15.09000015258789 35.48999786376953 C 15.896666526794434 35.11000061035156 16.56999969482422 34.573333740234375 17.110000610351562 33.880001068115234 C 17.649999618530273 33.186668395996094 18.059999465942383 32.36000061035156 18.34000015258789 31.399999618530273 C 18.6200008392334 30.433334350585938 18.760000228881836 29.369998931884766 18.760000228881836 28.209999084472656 L 18.760000228881836 26.959999084472656 C 18.18666648864746 27.079999923706055 17.610000610351562 27.1733341217041 17.030000686645508 27.239999771118164 C 16.450000762939453 27.299999237060547 15.796667098999023 27.329999923706055 15.069999694824219 27.329999923706055 C 13.210000038146973 27.329999923706055 11.466666221618652 27.046667098999023 9.84000015258789 26.479999542236328 C 8.213333129882812 25.913333892822266 6.796666622161865 25.03333282470703 5.590000152587891 23.84000015258789 C 4.37666654586792 22.65333366394043 3.4233334064483643 21.136667251586914 2.7300000190734863 19.290000915527344 C 2.0299999713897705 17.44333267211914 1.6799999475479126 15.243332862854004 1.6799999475479126 12.6899995803833 C 1.6799999475479126 10.90999984741211 1.8733333349227905 9.266666412353516 2.259999990463257 7.760000228881836 C 2.640000104904175 6.260000228881836 3.1733334064483643 4.90333366394043 3.859999895095825 3.690000534057617 C 4.539999961853027 2.4833335876464844 5.349999904632568 1.4200000762939453 6.289999961853027 0.5 C 7.223333358764648 -0.4133338928222656 8.239999771118164 -1.176666259765625 9.34000015258789 -1.7900009155273438 C 10.4399995803833 -2.4099998474121094 11.603333473205566 -2.876667022705078 12.829999923706055 -3.190000534057617 C 14.050000190734863 -3.5033340454101562 15.289999961853027 -3.6599998474121094 16.549999237060547 -3.6599998474121094 C 17.736665725708008 -3.6599998474121094 18.843334197998047 -3.5466670989990234 19.8700008392334 -3.3199996948242188 C 20.89666748046875 -3.093334197998047 21.790000915527344 -2.7666664123535156 22.549999237060547 -2.3400001525878906 C 23.309999465942383 -1.9066658020019531 23.906665802001953 -1.3733329772949219 24.34000015258789 -0.7399997711181641 C 24.780000686645508 -0.10000038146972656 25 0.6233329772949219 25 1.4300003051757812 C 25 1.7966670989990234 24.933332443237305 2.1833324432373047 24.799999237060547 2.5900001525878906 C 24.6733341217041 2.989999771118164 24.486665725708008 3.3566665649414062 24.239999771118164 3.690000534057617 C 23.99333381652832 4.030000686645508 23.683332443237305 4.303333282470703 23.309999465942383 4.510000228881836 C 22.93000030517578 4.723333358764648 22.49333381652832 4.829999923706055 22 4.829999923706055 C 21.413333892822266 4.829999923706055 20.979999542236328 4.663333892822266 20.700000762939453 4.329999923706055 C 20.420000076293945 3.9966659545898438 20.209999084472656 3.583333969116211 20.06999969482422 3.0900001525878906 C 19.9233341217041 2.5966663360595703 19.816667556762695 2.0566673278808594 19.75 1.4699993133544922 C 19.683332443237305 0.8833332061767578 19.566667556762695 0.3433341979980469 19.399999618530273 -0.14999961853027344 C 19.233333587646484 -0.6433334350585938 18.983333587646484 -1.0566673278808594 18.649999618530273 -1.3899993896484375 C 18.316667556762695 -1.7299995422363281 17.829999923706055 -1.8999996185302734 17.190000534057617 -1.8999996185302734 C 16.709999084472656 -1.8999996185302734 16.170000076293945 -1.7833328247070312 15.569999694824219 -1.5499992370605469 C 14.963333129882812 -1.3166675567626953 14.353333473205566 -0.9500007629394531 13.739999771118164 -0.4500007629394531 C 13.126667022705078 0.049999237060546875 12.523333549499512 0.6866664886474609 11.930000305175781 1.4599990844726562 C 11.329999923706055 2.2333335876464844 10.803333282470703 3.1599998474121094 10.350000381469727 4.239999771118164 C 9.890000343322754 5.319999694824219 9.520000457763672 6.559999465942383 9.239999771118164 7.959999084472656 C 8.960000038146973 9.360000610351562 8.819999694824219 10.936666488647461 8.819999694824219 12.6899995803833 C 8.819999694824219 14.630000114440918 8.943333625793457 16.286666870117188 9.1899995803833 17.65999984741211 C 9.436666488647461 19.03333282470703 9.760000228881836 20.18000030517578 10.15999984741211 21.100000381469727 C 10.566666603088379 22.02666664123535 11.033333778381348 22.760000228881836 11.5600004196167 23.299999237060547 C 12.08666706085205 23.84000015258789 12.630000114440918 24.246665954589844 13.1899995803833 24.520000457763672 C 13.75 24.793333053588867 14.306666374206543 24.96666717529297 14.859999656677246 25.040000915527344 C 15.41333293914795 25.113332748413086 15.923333168029785 25.149999618530273 16.389999389648438 25.149999618530273 C 16.863332748413086 25.149999618530273 17.299999237060547 25.113332748413086 17.700000762939453 25.040000915527344 C 18.093334197998047 24.96666717529297 18.446666717529297 24.860000610351562 18.760000228881836 24.719999313354492 L 18.760000228881836 14.369999885559082 L 15.15999984741211 14.369999885559082 L 15.15999984741211 12.539999961853027 L 27.600000381469727 12.539999961853027 L 27.600000381469727 14.369999885559082 Z" transform="matrix(3.138561487197876, 0, 0, 3.138561487197876, 117.1695327758789, 109.54927825927734)" style="fill: rgb(217, 200, 113); white-space: pre; color: rgb(51, 51, 51);" />
    <path d="M 34.70963668823242 249.97999572753906 C 34.70963668823242 249.32000732421875 34.909637451171875 248.89334106445312 35.30963897705078 248.6999969482422 L 45.55963897705078 243.80999755859375 C 45.71963882446289 243.72999572753906 45.95964050292969 243.69000244140625 46.279640197753906 243.69000244140625 C 46.599639892578125 243.69000244140625 46.919639587402344 243.8300018310547 47.23963928222656 244.11000061035156 C 47.55963897705078 244.38999938964844 47.71963882446289 244.75999450683594 47.71963882446289 245.22000122070312 L 47.71963882446289 246.11000061035156 C 47.71963882446289 246.78334045410156 47.41630554199219 247.27333068847656 46.80963897705078 247.5800018310547 L 40.589637756347656 250.5 C 41.29630661010742 250.85333251953125 41.82297134399414 251.11000061035156 42.169639587402344 251.27000427246094 L 44.13964080810547 252.2100067138672 C 44.42630386352539 252.35000610351562 44.86630630493164 252.56666564941406 45.45964050292969 252.86000061035156 C 46.05297088623047 253.14666748046875 46.49297332763672 253.36000061035156 46.779640197753906 253.5 C 47.40630340576172 253.82000732421875 47.71963882446289 254.2866668701172 47.71963882446289 254.89999389648438 L 47.71963882446289 255.77999877929688 C 47.71963882446289 256.2466735839844 47.55963897705078 256.6199951171875 47.23963928222656 256.8999938964844 C 46.919639587402344 257.17999267578125 46.599639892578125 257.32000732421875 46.279640197753906 257.32000732421875 C 45.95964050292969 257.32000732421875 45.71963882446289 257.2799987792969 45.55963897705078 257.20001220703125 L 35.30963897705078 252.27999877929688 C 34.909637451171875 252.086669921875 34.70963668823242 251.6699981689453 34.70963668823242 251.02999877929688 L 34.70963668823242 249.97999572753906 ZM 53.765724182128906 263.2699890136719 C 53.09238815307617 263.2699890136719 52.75572204589844 263.0299987792969 52.75572204589844 262.54998779296875 C 52.75572204589844 262.3900146484375 52.79572296142578 262.20001220703125 52.8757209777832 261.9800109863281 C 53.28905487060547 260.47332763671875 53.97572326660156 258.3599853515625 54.93572235107422 255.63999938964844 C 58.52238845825195 245.5933380126953 60.43572235107422 240.29000854492188 60.675724029541016 239.72999572753906 C 60.91572189331055 239.1699981689453 61.1690559387207 238.7866668701172 61.43572235107422 238.5800018310547 C 61.69572448730469 238.36666870117188 62.06572341918945 238.25999450683594 62.54572296142578 238.25999450683594 L 65.37572479248047 238.25999450683594 C 66.04905700683594 238.25999450683594 66.38572692871094 238.5 66.38572692871094 238.97999572753906 C 66.38572692871094 239.13999938964844 66.3457260131836 239.3333282470703 66.2657241821289 239.55999755859375 C 65.73905944824219 241.413330078125 64.47572326660156 245.14999389648438 62.47572326660156 250.77000427246094 C 60.429054260253906 256.6700134277344 59.06905746459961 260.40667724609375 58.395721435546875 261.9800109863281 C 58.202388763427734 262.4266662597656 57.97572326660156 262.7533264160156 57.715721130371094 262.9599914550781 C 57.44905471801758 263.1666564941406 57.075721740722656 263.2699890136719 56.59572219848633 263.2699890136719 L 53.765724182128906 263.2699890136719 ZM 83.11591339111328 249.97999572753906 L 83.11591339111328 251.02999877929688 C 83.11591339111328 251.6699981689453 82.91590881347656 252.086669921875 82.51591491699219 252.27999877929688 L 72.26591491699219 257.20001220703125 C 72.10591125488281 257.2799987792969 71.86591339111328 257.32000732421875 71.54591369628906 257.32000732421875 C 71.22591400146484 257.32000732421875 70.90591430664062 257.17999267578125 70.5859146118164 256.8999938964844 C 70.26591491699219 256.6199951171875 70.10591125488281 256.2466735839844 70.10591125488281 255.77999877929688 L 70.10591125488281 254.89999389648438 C 70.10591125488281 254.2866668701172 70.41924285888672 253.82000732421875 71.04591369628906 253.5 C 71.33258056640625 253.36000061035156 71.7725830078125 253.14666748046875 72.36591339111328 252.86000061035156 C 72.95258331298828 252.56666564941406 73.392578125 252.35000610351562 73.6859130859375 252.2100067138672 L 75.64591217041016 251.27000427246094 C 75.9992446899414 251.11000061035156 76.52924346923828 250.85333251953125 77.23591613769531 250.5 L 71.01591491699219 247.5800018310547 C 70.40924835205078 247.27333068847656 70.10591125488281 246.78334045410156 70.10591125488281 246.11000061035156 L 70.10591125488281 245.22000122070312 C 70.10591125488281 244.75999450683594 70.26591491699219 244.38999938964844 70.5859146118164 244.11000061035156 C 70.90591430664062 243.8300018310547 71.22591400146484 243.69000244140625 71.54591369628906 243.69000244140625 C 71.86591339111328 243.69000244140625 72.10591125488281 243.72999572753906 72.26591491699219 243.80999755859375 L 82.51591491699219 248.6999969482422 C 82.91590881347656 248.89334106445312 83.11591339111328 249.32000732421875 83.11591339111328 249.97999572753906 Z" transform="matrix(0.8166007995605469, 0, 0, 0.8166007995605469, 44.582183837890625, -25.345542907714844)" style="fill: rgb(255, 255, 255); white-space: pre; color: rgb(51, 51, 51);" />
    <path d="M 34.70963668823242 249.97999572753906 C 34.70963668823242 249.32000732421875 34.909637451171875 248.89334106445312 35.30963897705078 248.6999969482422 L 45.55963897705078 243.80999755859375 C 45.71963882446289 243.72999572753906 45.95964050292969 243.69000244140625 46.279640197753906 243.69000244140625 C 46.599639892578125 243.69000244140625 46.919639587402344 243.8300018310547 47.23963928222656 244.11000061035156 C 47.55963897705078 244.38999938964844 47.71963882446289 244.75999450683594 47.71963882446289 245.22000122070312 L 47.71963882446289 246.11000061035156 C 47.71963882446289 246.78334045410156 47.41630554199219 247.27333068847656 46.80963897705078 247.5800018310547 L 40.589637756347656 250.5 C 41.29630661010742 250.85333251953125 41.82297134399414 251.11000061035156 42.169639587402344 251.27000427246094 L 44.13964080810547 252.2100067138672 C 44.42630386352539 252.35000610351562 44.86630630493164 252.56666564941406 45.45964050292969 252.86000061035156 C 46.05297088623047 253.14666748046875 46.49297332763672 253.36000061035156 46.779640197753906 253.5 C 47.40630340576172 253.82000732421875 47.71963882446289 254.2866668701172 47.71963882446289 254.89999389648438 L 47.71963882446289 255.77999877929688 C 47.71963882446289 256.2466735839844 47.55963897705078 256.6199951171875 47.23963928222656 256.8999938964844 C 46.919639587402344 257.17999267578125 46.599639892578125 257.32000732421875 46.279640197753906 257.32000732421875 C 45.95964050292969 257.32000732421875 45.71963882446289 257.2799987792969 45.55963897705078 257.20001220703125 L 35.30963897705078 252.27999877929688 C 34.909637451171875 252.086669921875 34.70963668823242 251.6699981689453 34.70963668823242 251.02999877929688 L 34.70963668823242 249.97999572753906 ZM 53.765724182128906 263.2699890136719 C 53.09238815307617 263.2699890136719 52.75572204589844 263.0299987792969 52.75572204589844 262.54998779296875 C 52.75572204589844 262.3900146484375 52.79572296142578 262.20001220703125 52.8757209777832 261.9800109863281 C 53.28905487060547 260.47332763671875 53.97572326660156 258.3599853515625 54.93572235107422 255.63999938964844 C 58.52238845825195 245.5933380126953 60.43572235107422 240.29000854492188 60.675724029541016 239.72999572753906 C 60.91572189331055 239.1699981689453 61.1690559387207 238.7866668701172 61.43572235107422 238.5800018310547 C 61.69572448730469 238.36666870117188 62.06572341918945 238.25999450683594 62.54572296142578 238.25999450683594 L 65.37572479248047 238.25999450683594 C 66.04905700683594 238.25999450683594 66.38572692871094 238.5 66.38572692871094 238.97999572753906 C 66.38572692871094 239.13999938964844 66.3457260131836 239.3333282470703 66.2657241821289 239.55999755859375 C 65.73905944824219 241.413330078125 64.47572326660156 245.14999389648438 62.47572326660156 250.77000427246094 C 60.429054260253906 256.6700134277344 59.06905746459961 260.40667724609375 58.395721435546875 261.9800109863281 C 58.202388763427734 262.4266662597656 57.97572326660156 262.7533264160156 57.715721130371094 262.9599914550781 C 57.44905471801758 263.1666564941406 57.075721740722656 263.2699890136719 56.59572219848633 263.2699890136719 L 53.765724182128906 263.2699890136719 ZM 83.11591339111328 249.97999572753906 L 83.11591339111328 251.02999877929688 C 83.11591339111328 251.6699981689453 82.91590881347656 252.086669921875 82.51591491699219 252.27999877929688 L 72.26591491699219 257.20001220703125 C 72.10591125488281 257.2799987792969 71.86591339111328 257.32000732421875 71.54591369628906 257.32000732421875 C 71.22591400146484 257.32000732421875 70.90591430664062 257.17999267578125 70.5859146118164 256.8999938964844 C 70.26591491699219 256.6199951171875 70.10591125488281 256.2466735839844 70.10591125488281 255.77999877929688 L 70.10591125488281 254.89999389648438 C 70.10591125488281 254.2866668701172 70.41924285888672 253.82000732421875 71.04591369628906 253.5 C 71.33258056640625 253.36000061035156 71.7725830078125 253.14666748046875 72.36591339111328 252.86000061035156 C 72.95258331298828 252.56666564941406 73.392578125 252.35000610351562 73.6859130859375 252.2100067138672 L 75.64591217041016 251.27000427246094 C 75.9992446899414 251.11000061035156 76.52924346923828 250.85333251953125 77.23591613769531 250.5 L 71.01591491699219 247.5800018310547 C 70.40924835205078 247.27333068847656 70.10591125488281 246.78334045410156 70.10591125488281 246.11000061035156 L 70.10591125488281 245.22000122070312 C 70.10591125488281 244.75999450683594 70.26591491699219 244.38999938964844 70.5859146118164 244.11000061035156 C 70.90591430664062 243.8300018310547 71.22591400146484 243.69000244140625 71.54591369628906 243.69000244140625 C 71.86591339111328 243.69000244140625 72.10591125488281 243.72999572753906 72.26591491699219 243.80999755859375 L 82.51591491699219 248.6999969482422 C 82.91590881347656 248.89334106445312 83.11591339111328 249.32000732421875 83.11591339111328 249.97999572753906 Z" transform="matrix(0.8166007995605469, 0, 0, 0.8166007995605469, 120.11878967285156, -119.01094055175781)" style="fill: rgb(255, 255, 255); white-space: pre; color: rgb(51, 51, 51);" />
</svg>
